<?xml version="1.0"?>
<svg xmlns="http://www.w3.org/2000/svg" xmlns:xlink="http://www.w3.org/1999/xlink" xmlns:svgjs="http://svgjs.com/svgjs" version="1.1" width="512" height="512" x="0" y="0" viewBox="0 0 128 128" style="enable-background:new 0 0 512 512" xml:space="preserve" class=""><g><g xmlns="http://www.w3.org/2000/svg"><path d="m83.636 85.728a34.218 34.218 0 0 1 -23.4-59.191 37.71 37.71 0 1 0 39.154 55.347 34.063 34.063 0 0 1 -15.754 3.844z" fill="#afd1fd" data-original="#afd1fd" style=""/><g fill="#fff276"><path d="m73.75 52.826 3.013 6.104 6.737.979-4.875 4.752 1.151 6.71-6.026-3.168-6.026 3.168 1.151-6.71-4.875-4.752 6.737-.979z" fill="#fff276" data-original="#fff276" style="" class=""/><path d="m81.406 33.634 3.946 3.964 5.503-1.003-2.551 4.978 2.654 4.924-5.522-.888-3.863 4.046-.862-5.527-5.041-2.423 4.99-2.528z" fill="#fff276" data-original="#fff276" style="" class=""/></g></g></g></svg>
