<svg id="Capa_1" enable-background="new 0 0 512 512" height="512" viewBox="0 0 512 512" width="512" xmlns="http://www.w3.org/2000/svg"><g><g><circle cx="256" cy="256" fill="#ccf5fc" r="245.98"/><path d="m379.326 212.09-159.024-91.74c-33.828-19.515-76.114 4.879-76.114 43.91v47.153 89.425 46.903c0 39.031 42.285 63.425 76.114 43.91l159.024-91.74c33.828-19.517 33.828-68.305 0-87.821z" fill="#80b6ff"/></g><g><circle cx="144.188" cy="256" r="10"/><path d="m437.02 74.98c-48.353-48.351-112.64-74.98-181.02-74.98s-132.667 26.629-181.02 74.98c-48.351 48.353-74.98 112.64-74.98 181.02s26.629 132.667 74.98 181.02c48.353 48.351 112.64 74.98 181.02 74.98s132.667-26.629 181.02-74.98c48.351-48.353 74.98-112.64 74.98-181.02s-26.629-132.667-74.98-181.02zm-14.171 347.869c-44.566 44.568-103.822 69.112-166.849 69.112s-122.283-24.544-166.849-69.112c-44.568-44.566-69.112-103.822-69.112-166.849s24.544-122.283 69.112-166.849c44.566-44.568 103.822-69.112 166.849-69.112s122.283 24.544 166.849 69.112c44.568 44.567 69.112 103.822 69.112 166.849s-24.544 122.283-69.112 166.849z"/><path d="m384.333 203.411-159.024-91.74c-19.031-10.979-41.755-10.976-60.783.016-19.009 10.978-30.357 30.632-30.357 52.572v47.154c0 5.533 4.486 10.02 10.02 10.02s10.02-4.486 10.02-10.02v-47.154c0-14.698 7.604-27.864 20.34-35.219 12.755-7.367 27.987-7.371 40.747-.011l159.024 91.74c12.748 7.354 20.358 20.524 20.358 35.231s-7.611 27.877-20.358 35.231l-159.024 91.74c-12.76 7.362-27.992 7.357-40.747-.011-12.737-7.355-20.34-20.522-20.34-35.219v-46.903c0-5.533-4.486-10.02-10.02-10.02s-10.02 4.486-10.02 10.02v46.903c0 21.94 11.348 41.594 30.357 52.572 9.519 5.498 19.961 8.247 30.404 8.247 10.433 0 20.867-2.744 30.379-8.231l159.024-91.74c19.025-10.977 30.384-30.635 30.384-52.589s-11.359-41.613-30.384-52.589z"/></g></g></svg>